<?xml version="1.0" encoding="UTF-8"?>
<svg id="Layer_1" xmlns="http://www.w3.org/2000/svg" xmlns:xlink="http://www.w3.org/1999/xlink" xmlns:i="http://ns.adobe.com/AdobeIllustrator/10.0/" version="1.1" viewBox="0 0 24 18">
  <!-- Generator: Adobe Illustrator 30.7.0, SVG Export Plug-In . SVG Version: 2.1.4 Build 114)  -->
  <defs>
    <clipPath id="clippath">
      <rect width="24" height="18" rx="2.48" ry="2.48" fill="none"/>
    </clipPath>
  </defs>
  <g clip-path="url(#clippath)">
    <g>
      <path d="M0,0v18h24V0H0Z" fill="#e31d1c" fill-rule="evenodd"/>
      <path d="M0,0v9h24V0H0Z" fill="#f7fcff" fill-rule="evenodd"/>
      <path d="M0,0v18l13.5-9L0,0Z" fill="#3d58db" fill-rule="evenodd"/>
    </g>
  </g>
  <path d="M21.78,1.5c.4,0,.72.32.72.72v13.55c0,.4-.32.72-.72.72H2.22c-.4,0-.72-.32-.72-.72V2.22c0-.4.32-.72.72-.72h19.55ZM21.78,0H2.22C1,0,0,1,0,2.22v13.55c0,1.23,1,2.22,2.22,2.22h19.55c1.23,0,2.22-1,2.22-2.22V2.22c0-1.23-1-2.22-2.22-2.22h0Z" fill="#0a195a"/>
</svg>
