<svg xmlns="http://www.w3.org/2000/svg" width="117" height="64" fill="none" overflow="visible" style="display:block" viewBox="0 0 117 64"><g clip-path="url(#a)"><path fill="#007e31" d="m6.92 38.39 5.908 7.096H8.652L3.35 39.21v6.276H.016V32.114h3.335v6.06h.038l4.214-6.06h3.677z"/><path fill="#007e31" d="M19.937 40.356c0 2.215-.787 3.447-2.275 3.447-1.211 0-2.325-.77-2.325-3.388 0-2.285.945-3.36 2.325-3.36 1.59 0 2.275 1.324 2.275 3.3m3.4.081c0-3.893-3.204-5.283-5.675-5.283-2.987 0-5.725 1.808-5.725 5.256 0 3.192 2.412 5.283 5.725 5.283 2.226 0 5.675-1.238 5.675-5.256m9.254-.08c0 2.215-.793 3.447-2.28 3.447-1.206 0-2.325-.77-2.325-3.388 0-2.285.945-3.36 2.324-3.36 1.597 0 2.281 1.324 2.281 3.3m3.4.081c0-3.893-3.204-5.283-5.68-5.283-2.982 0-5.73 1.808-5.73 5.256 0 3.192 2.416 5.283 5.73 5.283 2.237 0 5.68-1.238 5.68-5.256m4.807-2.198c.793-.624 1.287-.825 1.971-.825 1.51 0 2.379 1.135 2.379 3.078 0 1.944-.967 3.095-2.515 3.095-.63 0-1.2-.2-1.84-.662v-4.686zm0-2.872H37.62v14.388h3.178v-4.756c.75.434 1.71.695 2.601.695 3.004 0 4.975-2.112 4.975-5.38 0-2.933-2.064-5.164-4.687-5.164-1.092 0-1.993.331-2.89 1.08zm12.143 3.914c.142-1.416.956-2.23 2.216-2.23s2.075.84 2.21 2.23zm7.06 3.068c-1.493 1.08-2.476 1.455-3.758 1.455-2.015 0-3.247-1.058-3.367-2.872h7.289c.157-3.675-2.276-5.771-5.23-5.771-3.129 0-5.35 2.204-5.35 5.293s2.303 5.24 5.887 5.24c.788 0 2.705 0 4.524-1.336v-2.009zm5.383-4.783.043.472c.945-2.1 2.064-2.633 2.955-2.709.342-.032 1.08-.114 1.765.581v3.051c-.831-.526-1.711-.488-2.222-.488-1.08 0-2.552 1.417-2.547 2.65v4.364h-3.177V35.372h3.177v2.198zm11.346 5.467c-.533.483-1.174.771-1.76.771s-1.038-.488-1.038-1.08c0-1.02.907-1.455 2.803-2.14v2.45zm4.914-.043c-.738.526-.977.57-1.206.57-.325 0-.52-.201-.52-.706v-4.636c0-2.216-1.733-3.068-4.291-3.068-1.613 0-3.08.413-4.4 1.221v2.596c1.005-1.043 2.455-1.7 3.737-1.7 1.39 0 1.83.75 1.76 1.7-4.253 1.325-6.034 1.813-6.034 4.24 0 1.276 1.211 2.492 2.835 2.492 1.102 0 2.118-.31 3.356-1.146.218.815.717 1.146 1.776 1.146.858 0 2.107-.402 2.982-.923v-1.792zm8.152-5.429H86.11v4.185c0 .989.564 1.624 1.558 1.624.663 0 1.276-.152 2.135-.592v2.291c-1.125.456-1.961.635-2.944.635-2.113 0-3.932-.96-3.932-3.795V37.56h-1.45v-.614l4.241-4.75h.397v3.181h3.688v2.188zm1.374-2.188h3.188v10.12H91.17zm3.362-3.301c0 .96-.787 1.759-1.749 1.759a1.77 1.77 0 0 1-1.76-1.76 1.76 1.76 0 0 1 1.76-1.759 1.75 1.75 0 0 1 1.749 1.76m.473 3.295h3.388l2.157 5.587 2.172-5.587h3.373l-4.649 10.332H99.67zm17.075 7.666c-.527.483-1.168.771-1.766.771-.597 0-1.037-.488-1.037-1.08 0-1.02.913-1.455 2.808-2.14v2.45zm4.92-.043c-.749.526-.994.57-1.206.57-.331 0-.532-.201-.532-.706v-4.636c0-2.216-1.738-3.068-4.29-3.068-1.608 0-3.085.413-4.4 1.221v2.596c1.011-1.043 2.466-1.7 3.742-1.7 1.391 0 1.836.75 1.766 1.7-4.253 1.325-6.029 1.813-6.029 4.24 0 1.276 1.211 2.492 2.83 2.492 1.097 0 2.118-.31 3.351-1.146.222.815.727 1.146 1.786 1.146.853 0 2.097-.402 2.982-.923v-1.792zM47.945 14.36l2.27 3.942-4.144 7.183h10.167l4.15-7.183h4.545l-6.414 11.12H43.796l-2.276-3.937z"/><path fill="#007e31" d="m60.387 29.421 2.276-3.936h8.298l-5.088-8.806h-8.299l-2.276-3.942h12.85l7.36 12.748-2.271 3.936z"/><path fill="#007e31" d="M67.214 11.12h-4.551l-4.144-7.184-5.094 8.801 4.149 7.188-2.276 3.937-6.419-11.125L56.238 0h4.551z"/><path fill="#e30613" d="M117 51.725H0v1.78h117z"/><path fill="#000" d="M114.79 58.538h-1.434v2.085h1.434c.689 0 1.156-.38 1.156-1.037s-.467-1.048-1.156-1.048m.054 2.948h-1.488v2.465h-.994v-6.26h2.482c1.276 0 2.096.81 2.096 1.9 0 1.092-.814 1.9-2.096 1.9M108.381 64c-1.331 0-2.341-.869-2.341-2.166V57.68h.994v4.105c0 .836.532 1.352 1.352 1.352s1.358-.522 1.358-1.352V57.68h.994v4.154c0 1.292-1.021 2.166-2.352 2.166m-5.11-5.125c-.228-.24-.587-.386-.972-.386-.386 0-.744.152-.972.386-.321.331-.386.684-.386 1.944s.065 1.606.386 1.943c.228.239.586.386.972.386.385 0 .744-.147.972-.386.32-.337.385-.684.385-1.944s-.065-1.607-.385-1.943m.749 4.457c-.45.43-1.026.668-1.727.668-.7 0-1.265-.239-1.716-.668-.64-.613-.635-1.308-.635-2.514s-.011-1.9.635-2.513c.451-.43 1.021-.668 1.716-.668s1.277.239 1.727.668c.641.613.625 1.308.625 2.514s.016 1.9-.625 2.513m-7.418-4.794h-1.472v1.96h1.472c.662 0 1.113-.364 1.113-.977 0-.614-.45-.988-1.113-.988m1.145 5.418-1.379-2.639h-1.238v2.64h-.994v-6.26h2.536c1.238 0 2.031.765 2.031 1.829 0 .896-.57 1.471-1.303 1.661l1.504 2.77zm-5.626-.673c-.462.467-1.064.722-1.781.722s-1.266-.239-1.716-.668c-.641-.613-.636-1.308-.636-2.514s-.01-1.9.636-2.513c.45-.43 1.02-.668 1.716-.668.89 0 1.385.266 1.977.825l-.674.64c-.413-.395-.717-.613-1.303-.613-.386 0-.744.152-.972.386-.32.331-.386.684-.386 1.944s.065 1.617.386 1.954c.228.239.586.38.972.38.434 0 .787-.157 1.048-.44.239-.255.32-.608.32-.993v-.342h-1.368v-.81h2.362v.94c0 .809-.146 1.336-.581 1.775m-11.687.668v-6.26h4.181v.853h-3.188v1.83h2.721v.84h-2.72V63.1h3.187v.852zM77.256 64a2.43 2.43 0 0 1-1.716-.668c-.641-.613-.636-1.308-.636-2.514s-.01-1.9.636-2.513a2.43 2.43 0 0 1 1.716-.668c.82 0 1.341.282 1.825.738l-.663.64c-.342-.325-.624-.526-1.168-.526-.385 0-.733.142-.966.38-.32.337-.386.695-.386 1.955s.065 1.618.386 1.954c.228.24.58.38.966.38.544 0 .826-.2 1.168-.526l.663.64c-.489.456-1.01.739-1.825.739m-4.758-.06-3.02-4.408v4.408h-.993v-6.26h.907l3.02 4.398V57.69h.993v6.26zm-7.733-4.848-1.021 2.78h2.01l-.995-2.78zm1.716 4.848-.45-1.26h-2.58L63 63.952h-1.06l2.396-6.26h.798l2.395 6.26h-1.054zm-7.327-5.413h-1.471v1.96h1.471c.663 0 1.114-.364 1.114-.977 0-.614-.451-.988-1.114-.988M60.3 63.95l-1.38-2.639h-1.237v2.64h-.994v-6.26h2.536c1.238 0 2.031.765 2.031 1.829 0 .896-.57 1.471-1.303 1.661l1.504 2.77zm-7.598.05c-1.33 0-2.34-.869-2.34-2.166V57.68h.993v4.105c0 .836.533 1.352 1.353 1.352s1.358-.522 1.358-1.352V57.68h.993v4.154c0 1.292-1.02 2.166-2.351 2.166m-5.947 0c-.983 0-1.69-.217-2.314-.825l.663-.625c.478.456 1 .598 1.673.598.852 0 1.352-.353 1.352-.956 0-.271-.081-.5-.255-.651-.163-.152-.332-.212-.717-.266l-.771-.104c-.533-.07-.956-.244-1.239-.5q-.479-.429-.478-1.194c0-1.09.826-1.84 2.184-1.84.863 0 1.471.212 2.03.711l-.635.597c-.401-.369-.874-.483-1.422-.483-.772 0-1.195.424-1.195.977 0 .228.07.43.25.581.162.141.429.245.733.288l.744.103c.608.087.945.228 1.222.467.358.299.532.75.532 1.287 0 1.15-.983 1.835-2.352 1.835m-4.382-.049-3.02-4.408v4.408h-.994v-6.26h.907l3.02 4.398V57.69h.994v6.26zm-6.746-6.265h.994v6.26h-.994zm-5.952 1.417-1.021 2.78h2.01l-.995-2.78zm1.721 4.848-.45-1.26h-2.58l-.45 1.26h-1.054l2.395-6.26h.798l2.395 6.26h-1.059zm-6.403 0-3.02-4.408v4.408h-.993v-6.26h.907l3.02 4.398V57.69h.993v6.26zm-6.658 0-3.02-4.408v4.408h-.994v-6.26h.913l3.02 4.398V57.69h.993v6.26h-.912m-9.58 0v-6.26h4.182v.853H9.759v1.83h2.721v.84H9.76V63.1h3.188v.852zm-2.727-6.265h.994v6.26H6.04zM2.944 63.95h-.772l-2.15-6.265h1.026l1.505 4.555 1.504-4.555h1.048l-2.167 6.26z"/></g><defs><clipPath id="a"><path fill="#fff" d="M0 0h117v64H0z"/></clipPath></defs></svg>