<svg xmlns="http://www.w3.org/2000/svg" width="157" height="40" fill="none" overflow="visible" preserveAspectRatio="none" style="display:block" viewBox="0 0 157 40"><path fill="#2b2d33" d="m58.307 18.154-3.522-6.382h-1.427v6.382h-3.425V2.02h6.497q1.665 0 2.88.558 1.213.559 1.854 1.627.642 1.068.643 2.562 0 1.754-.94 2.943-.939 1.189-2.674 1.66l3.927 6.785h-3.807zM53.358 4.96v4.106h2.664q1.07 0 1.642-.533.573-.532.572-1.554c0-.682-.19-1.226-.572-1.543Q57.092 4.96 56 4.96zm18.582.643h3.258v12.55H71.94V16.66A4.36 4.36 0 0 1 70.37 18q-.952.485-2.142.486c-1.03 0-1.952-.28-2.758-.841q-1.214-.843-1.892-2.35-.68-1.507-.678-3.405c0-1.265.227-2.424.678-3.43q.676-1.506 1.892-2.347 1.214-.84 2.758-.841 1.19 0 2.142.498a4.5 4.5 0 0 1 1.57 1.354zm-1.286 9.513q.644-.428 1.01-1.245.37-.82.368-1.982 0-1.162-.367-1.98-.37-.82-1.01-1.246a2.6 2.6 0 0 0-1.476-.427q-.834.001-1.487.427c-.437.283-.773.701-1.01 1.245q-.359.82-.357 1.982 0 1.162.356 1.98.356.82 1.01 1.246a2.65 2.65 0 0 0 1.488.427q.832-.001 1.475-.427m7.605-11.804q-.534-.533-.534-1.388 0-.856.534-1.389Q78.793.001 79.65 0q.856-.001 1.38.535.523.534.523 1.389t-.522 1.388q-.525.534-1.38.536-.859 0-1.393-.536m2.985 14.842h-3.258V5.603h3.258zm6.971-12.551h3.451V8.45h-3.45v9.705h-3.259V8.451h-2.141V5.603h2.141v-.76q0-2.064 1.188-3.154Q87.334.6 89.405.6q.76-.002 1.451.142t1.26.381l-.832 2.49a3.7 3.7 0 0 0-1.404-.26q-.88 0-1.271.404-.394.405-.394 1.234v.615z"/><path fill="#2b2d33" d="M96.542 5.603h3.451V8.45h-3.45v9.705h-3.259V8.451h-2.141V5.603h2.141v-.76q0-2.064 1.189-3.154T97.73.6q.76-.002 1.452.142t1.26.381l-.832 2.49a3.7 3.7 0 0 0-1.404-.26q-.88 0-1.271.404-.394.405-.394 1.234v.615zm16.131 7.426h-8.495q.167 1.424.928 2.064t2.236.641q1.022.001 1.892-.295a4.6 4.6 0 0 0 1.51-.841l1.404 2.23a6.7 6.7 0 0 1-2.213 1.234 8.5 8.5 0 0 1-2.713.426q-2.046 0-3.523-.781a5.27 5.27 0 0 1-2.248-2.253q-.773-1.473-.772-3.487c0-1.343.252-2.5.76-3.513q.764-1.518 2.154-2.35 1.392-.83 3.175-.83t3.117.807q1.332.807 2.059 2.301.724 1.495.726 3.513v1.14zm-8.495-2.23h5.211q-.12-1.401-.784-2.087-.668-.687-1.809-.687-2.281-.001-2.618 2.777zm10.768-7.487q-.534-.533-.534-1.388 0-.856.534-1.389.535-.534 1.393-.535.856-.001 1.38.535.523.534.524 1.389-.001.855-.524 1.388-.524.534-1.38.536-.858 0-1.393-.536m2.986 14.842h-3.258V5.603h3.258zm4.162-.084q-1.333-.415-2.259-1.294l1.522-2.324q1.404 1.327 3.568 1.328.952.002 1.438-.298.488-.296.488-.89 0-.497-.438-.819-.442-.32-1.605-.604-1.499-.33-2.464-.736t-1.558-1.139q-.595-.735-.595-1.921.001-1.259.643-2.181.643-.925 1.832-1.423t2.759-.498q1.474 0 2.724.426a5.8 5.8 0 0 1 2.13 1.257l-1.521 2.23a4.3 4.3 0 0 0-1.521-.902 5.5 5.5 0 0 0-1.832-.309c-.635 0-1.063.095-1.381.286q-.477.286-.476.853 0 .33.2.559.201.225.704.438.501.213 1.427.426 1.282.311 2.212.736a3.9 3.9 0 0 1 1.522 1.211q.595.781.595 1.993 0 1.21-.621 2.112-.62.903-1.808 1.4-1.19.499-2.857.498a9.4 9.4 0 0 1-2.83-.415zm21.437-5.041h-8.495q.166 1.424.927 2.064t2.236.641a5.8 5.8 0 0 0 1.893-.295 4.6 4.6 0 0 0 1.509-.841l1.404 2.23a6.7 6.7 0 0 1-2.213 1.234 8.5 8.5 0 0 1-2.713.426q-2.046 0-3.522-.781a5.27 5.27 0 0 1-2.249-2.253q-.773-1.473-.772-3.487c0-1.343.253-2.5.762-3.513q.762-1.518 2.152-2.35 1.392-.83 3.175-.83t3.118.807q1.33.807 2.058 2.301.724 1.495.726 3.513v1.14zm-8.495-2.23h5.21q-.12-1.401-.784-2.087-.666-.687-1.808-.687-2.282-.001-2.618 2.777zm19.857-4.947q1.011.58 1.559 1.697.547 1.117.548 2.683v7.924h-3.285v-7.52q0-1.211-.559-1.816-.558-.604-1.702-.604-.857 0-1.51.381-.655.381-1.154 1.14v8.422h-3.259V5.603h3.259v1.471a4 4 0 0 1 1.558-1.328q.965-.474 2.153-.475 1.379 0 2.392.58M61.164 32.657c.459.655.689 1.46.689 2.407q-.001 2.209-1.416 3.404-1.416 1.2-4.007 1.2h-6.497V23.533h5.926q2.57-.001 3.973 1.102t1.403 3.12q0 2.398-2.07 3.442 1.31.476 1.999 1.46m-7.806-6.23V30.2h2.236q1.096.001 1.605-.475.512-.472.511-1.4-.001-1.017-.548-1.46-.548-.438-1.642-.438h-2.165zm2.664 10.344c.747 0 1.303-.158 1.677-.476q.56-.473.56-1.517 0-.973-.535-1.448-.534-.474-1.77-.476H53.36v3.917h2.664zm16.134-9.654h3.258v12.55h-3.258v-1.494a4.36 4.36 0 0 1-1.57 1.34q-.953.486-2.142.487-1.547 0-2.759-.842-1.213-.841-1.892-2.35-.678-1.507-.677-3.404c0-1.265.227-2.425.677-3.43q.676-1.506 1.892-2.347 1.214-.842 2.759-.842 1.189 0 2.141.498a4.5 4.5 0 0 1 1.57 1.354zm-1.287 9.513c.428-.283.767-.701 1.011-1.245q.37-.819.368-1.981-.001-1.162-.368-1.981c-.247-.544-.583-.962-1.01-1.245a2.6 2.6 0 0 0-1.476-.427 2.67 2.67 0 0 0-1.487.426c-.436.284-.772.702-1.01 1.246q-.358.819-.357 1.981 0 1.162.356 1.981c.239.544.575.962 1.01 1.245a2.65 2.65 0 0 0 1.488.427q.833 0 1.475-.427m16.691-9.264q1.011.581 1.558 1.698.549 1.115.55 2.682v7.925h-3.285v-7.52q0-1.211-.56-1.816-.558-.605-1.702-.604-.857 0-1.51.38-.655.381-1.154 1.14v8.423h-3.259V27.123h3.259v1.471a4 4 0 0 1 1.559-1.328q.964-.474 2.153-.475 1.379 0 2.391.58zm11.052 5.611 5.044 6.69h-3.901l-4.306-5.693v5.694H92.19V22.585h3.257v9.634l4.095-5.102h3.878l-4.806 5.86z"/><path fill="#fee600" d="M37.75 2.018H0v37.65h37.75z"/><path fill="#2b2d33" fill-rule="evenodd" d="m27.298 18.168 4.811-4.798 1.286 1.282.009-.008c0-.825-.244-3.66-2.527-5.878-2.554-2.485-5.112-1.03-5.996-.154l-4.634 4.62 1.148 1.145-2.52 2.514-2.52-2.514 1.148-1.145-4.633-4.62c-.882-.88-3.44-2.33-5.997.154-2.283 2.219-2.527 5.053-2.527 5.878l.009.008L5.64 13.37l4.811 4.798 1.327-1.323v-3.16l1.363 1.36v3.821l1.878 1.873-9.744 9.716L9.132 34.3l9.743-9.716 9.743 9.716 3.856-3.845-9.744-9.716 1.878-1.873v-3.822l1.363-1.36v3.161z" clip-rule="evenodd"/></svg>